<svg width="25" height="24" viewBox="0 0 25 24" fill="none" xmlns="http://www.w3.org/2000/svg">
<path d="M12.875 2.5C15.2189 2.5 17.125 4.40614 17.125 6.75C17.115 9.05196 15.3169 10.9097 13.0273 10.9902H12.999C12.9198 10.9818 12.8385 10.9833 12.7617 10.9893C10.4127 10.9032 8.625 9.04362 8.625 6.75C8.625 4.40614 10.5311 2.5 12.875 2.5Z" fill="#A7A7A7" stroke="#A7A7A7"/>
<path d="M12.8877 13.2549C14.6489 13.2549 16.3819 13.7016 17.6778 14.5654C18.7617 15.2881 19.3333 16.2127 19.4073 17.1719L19.4151 17.3643C19.4135 18.3306 18.9044 19.2687 17.8858 20.0264L17.6758 20.1748C16.375 21.0481 14.6378 21.5 12.875 21.5C11.1121 21.5 9.37416 21.0483 8.07327 20.1748L8.0723 20.1738C6.91338 19.4012 6.33499 18.4016 6.33499 17.3799C6.33499 16.3575 6.91408 15.3478 8.08304 14.5654L8.08206 14.5645C9.38853 13.7003 11.1274 13.2549 12.8877 13.2549Z" fill="#A7A7A7" stroke="#A7A7A7"/>
</svg>
